<?xml version="1.0" standalone="no"?>
<!DOCTYPE svg PUBLIC "-//W3C//DTD SVG 20010904//EN"
 "http://www.w3.org/TR/2001/REC-SVG-20010904/DTD/svg10.dtd">
<svg version="1.0" xmlns="http://www.w3.org/2000/svg"
 width="1024.000000pt" height="599.000000pt" viewBox="0 0 1024.000000 599.000000"
 preserveAspectRatio="xMidYMid meet">

<g transform="translate(0.000000,599.000000) scale(0.100000,-0.100000)"
fill="#000000" stroke="none">
<path d="M5555 5970 c-16 -10 -45 -42 -64 -70 l-34 -50 -596 0 -596 0 -50 -24
c-72 -34 -265 -165 -265 -180 0 -3 340 -6 755 -6 l755 0 0 65 c0 58 3 68 26
88 14 12 45 41 68 65 49 48 62 51 100 21 19 -15 26 -29 25 -52 -2 -28 -2 -28
-6 -7 -6 29 -30 60 -48 60 -7 0 -30 -17 -51 -37 -22 -21 -52 -48 -67 -60 -23
-20 -27 -30 -27 -75 1 -86 24 -190 52 -238 14 -25 50 -76 78 -115 60 -81 69
-100 75 -167 5 -55 20 -88 76 -168 52 -74 87 -115 93 -109 3 3 -6 52 -20 110
-46 183 -48 229 -9 229 8 0 15 -1 15 -2 0 -2 7 -41 15 -88 9 -51 19 -204 25
-385 9 -319 17 -371 65 -463 14 -27 36 -102 49 -171 25 -122 55 -191 92 -205
24 -9 17 -45 -10 -52 -14 -3 -30 -3 -37 1 -25 16 -51 99 -58 193 -9 102 -23
152 -42 152 -6 0 -36 -14 -65 -31 -95 -54 -161 -153 -172 -258 -4 -43 -7 -50
-13 -33 -9 25 6 120 27 171 8 19 12 36 9 39 -9 9 -116 -38 -173 -76 -64 -44
-146 -128 -180 -184 -13 -20 -44 -53 -70 -72 -60 -44 -144 -132 -166 -174 -9
-18 -19 -32 -21 -32 -13 0 30 80 93 173 21 31 26 51 28 117 1 50 -2 80 -8 80
-19 0 -76 -69 -102 -124 -30 -64 -61 -191 -71 -289 -7 -74 -19 -88 -60 -69
-33 15 -75 101 -75 152 0 72 45 141 196 301 75 79 112 137 129 199 5 19 0 15
-21 -15 -15 -22 -39 -53 -53 -68 -28 -32 -119 -80 -166 -91 -17 -3 -4 6 31 23
105 49 173 125 210 234 8 25 23 47 33 50 10 2 22 22 30 48 7 24 28 71 46 104
34 63 35 79 5 95 -26 14 -67 -6 -82 -42 -16 -34 -20 -35 -35 -2 -10 21 -8 32
7 67 13 28 20 65 20 111 l0 69 20 -26 c11 -14 29 -45 39 -69 l19 -43 -5 40
c-10 73 -42 140 -95 200 -43 48 -47 56 -23 41 47 -29 83 -66 100 -103 23 -48
27 -37 11 29 -41 175 -182 317 -355 358 -68 16 -176 8 -255 -20 -157 -54 -246
-146 -295 -304 -23 -76 -27 -118 -6 -70 15 34 85 99 114 107 9 2 -4 -17 -29
-42 -52 -52 -80 -119 -79 -185 l0 -41 15 47 c8 26 18 49 23 52 4 3 11 -21 14
-54 4 -32 16 -78 28 -103 20 -40 20 -46 6 -73 l-15 -28 -15 36 c-16 38 -50 56
-82 44 -21 -8 -19 -29 19 -136 22 -64 40 -98 53 -104 11 -5 33 -34 49 -65 39
-76 136 -170 214 -209 35 -18 57 -32 49 -32 -31 0 -137 60 -188 106 -33 29
-51 41 -46 29 17 -40 18 -156 2 -219 -25 -99 -26 -109 -17 -149 9 -44 37 -78
84 -102 l31 -16 -42 4 c-62 7 -124 42 -210 120 -103 92 -173 143 -236 173
-110 51 -287 24 -492 -76 l-100 -48 -210 -5 c-316 -8 -550 -48 -655 -111 -30
-19 -66 -37 -79 -41 -41 -12 -148 -6 -249 15 -193 41 -379 36 -645 -16 -154
-30 -176 -39 -118 -47 45 -6 77 -25 64 -38 -5 -5 -33 -2 -64 6 -30 8 -127 24
-215 35 -138 18 -172 19 -257 9 -128 -15 -159 -3 -247 87 -72 74 -91 84 -157
84 -32 0 -61 9 -97 29 -28 16 -73 35 -101 42 -27 7 -61 20 -74 31 -32 24 -47
23 -67 -8 -16 -23 -16 -28 -1 -59 27 -56 79 -87 195 -115 80 -20 146 -107 89
-118 -12 -3 -22 9 -36 40 -10 25 -28 48 -42 54 -14 6 -121 10 -259 9 -208 0
-239 -2 -263 -18 -17 -11 -27 -26 -27 -42 0 -18 -5 -25 -20 -25 -18 0 -40 -26
-40 -49 0 -27 33 -41 98 -42 37 -1 78 -5 92 -10 20 -6 15 -8 -23 -6 -46 2 -47
2 -25 -15 48 -36 140 -60 254 -65 l111 -5 28 -37 c27 -34 27 -35 3 -13 -22 20
-31 22 -61 14 -25 -7 -58 -5 -117 5 -71 14 -84 14 -96 1 -8 -8 -12 -22 -8 -32
12 -31 63 -47 187 -57 67 -5 170 -21 228 -34 69 -17 135 -25 193 -25 76 0 95
4 151 30 35 17 79 30 97 30 52 0 158 -26 296 -71 209 -68 319 -90 482 -96 138
-5 149 -4 217 20 77 28 216 57 267 56 17 0 -19 -11 -80 -23 -149 -31 -149 -31
-74 -44 122 -21 207 -24 296 -13 93 13 194 39 194 52 0 7 -55 30 -120 49 -31
9 -29 9 22 5 90 -8 274 -59 461 -129 96 -36 204 -70 242 -77 132 -23 318 10
432 77 37 21 43 29 49 72 14 98 65 182 125 206 78 31 145 14 197 -52 40 -50
41 -61 2 -28 -121 101 -255 12 -286 -191 -9 -56 11 -164 46 -245 31 -74 117
-208 178 -277 l39 -43 12 60 c14 73 27 88 22 26 -8 -110 82 -321 249 -579 114
-178 135 -202 245 -285 134 -102 145 -118 185 -263 34 -126 58 -184 83 -206
12 -9 25 -6 66 19 29 16 54 30 57 30 2 0 -24 -27 -58 -59 l-63 -59 2 -92 c1
-50 4 -94 7 -98 4 -3 14 5 23 19 34 51 165 169 230 207 92 53 201 89 309 102
112 12 137 13 129 0 -3 -5 -25 -10 -49 -10 -114 0 -303 -77 -433 -176 -102
-78 -148 -146 -199 -297 -105 -308 -2 -549 292 -689 102 -47 291 -111 404
-135 121 -25 344 -25 420 1 59 20 130 56 130 66 0 3 -35 12 -77 19 -286 48
-549 212 -695 433 -39 59 -101 178 -96 184 2 2 27 -32 55 -75 116 -174 275
-313 467 -406 126 -61 229 -93 331 -101 l70 -6 49 51 c28 28 48 52 45 55 -2 2
-42 22 -89 44 -260 124 -443 309 -545 549 -42 101 -55 159 -16 76 115 -244
331 -465 566 -578 88 -43 208 -75 279 -75 74 0 193 36 241 74 15 12 8 11 -33
-4 -102 -39 -180 -23 -246 50 -50 55 -108 180 -104 223 5 58 40 49 179 -46
222 -151 323 -191 479 -189 128 2 315 37 670 128 293 75 296 76 395 71 154 -8
280 -62 335 -143 25 -38 101 -100 157 -128 47 -23 54 -21 41 15 -7 19 -9 72
-5 138 9 164 22 181 22 28 0 -147 10 -182 58 -205 37 -18 116 -7 159 22 48 32
96 100 115 164 29 92 23 236 -13 342 -53 156 -37 308 53 490 39 80 60 109 136
183 62 62 97 106 115 145 21 44 27 52 30 35 5 -33 -23 -80 -98 -163 -154 -173
-230 -325 -233 -468 l-2 -66 39 -9 c27 -7 56 -27 96 -67 l57 -57 11 57 c14 64
59 160 97 205 25 30 25 29 -4 -30 -82 -168 -94 -315 -32 -389 46 -54 174 -82
244 -52 77 33 146 151 172 296 60 327 111 420 350 644 86 80 123 123 144 165
43 85 51 171 16 171 -7 0 -16 7 -19 16 -9 24 -8 25 12 13 50 -31 118 39 96 99
-7 20 -16 26 -32 25 -17 -2 -22 3 -22 20 0 34 -28 67 -57 67 -21 0 -24 4 -20
21 6 24 -8 70 -26 81 -7 4 -25 8 -40 8 -27 0 -28 -1 -13 -22 18 -25 21 -74 6
-83 -6 -4 -10 7 -10 25 0 45 -39 80 -89 80 -64 0 -73 -7 -56 -40 17 -32 20
-106 6 -142 -9 -23 -7 -24 37 -24 26 0 56 -6 67 -13 18 -11 17 -12 -13 -7 -47
8 -79 -8 -149 -75 -64 -61 -130 -99 -173 -98 -18 0 -9 6 30 21 74 28 144 101
165 170 44 150 -11 259 -131 260 -65 1 -86 -23 -95 -109 -8 -83 -35 -113 -102
-113 -23 0 -61 -9 -85 -20 l-43 -20 8 -47 c18 -107 -3 -188 -60 -228 -36 -25
-40 -17 -8 15 29 30 51 83 51 127 0 39 -38 143 -65 179 -51 67 -132 78 -180
24 -16 -18 -15 -19 12 -33 43 -23 63 -50 69 -93 l4 -39 -13 34 c-27 69 -82 88
-144 50 -19 -12 -58 -23 -94 -26 -62 -6 -89 -25 -89 -64 0 -15 10 -17 78 -13
75 4 76 4 42 -10 -19 -8 -53 -15 -75 -15 -55 -1 -96 -29 -130 -87 -52 -92
-101 -132 -194 -160 -81 -24 -148 -71 -201 -138 -49 -62 -145 -147 -225 -197
-101 -64 -275 -130 -396 -151 -108 -18 -426 -15 -579 6 -263 36 -346 63 -545
181 -79 46 -102 55 -142 55 -58 0 -102 -24 -132 -74 -22 -34 -22 -40 -12 -155
11 -129 3 -221 -23 -267 l-17 -29 8 35 c11 48 9 96 -6 231 -8 64 -12 135 -8
157 11 84 83 142 181 145 48 2 63 -4 218 -91 136 -76 185 -98 264 -117 266
-68 610 -89 775 -48 218 55 468 188 575 307 25 28 58 65 73 81 15 17 57 49 95
71 l67 41 -81 22 c-94 26 -172 25 -340 -3 -136 -23 -212 -17 -310 25 -90 39
-192 45 -248 15 -59 -31 -115 -133 -188 -346 -50 -145 -56 -141 -15 10 69 249
124 353 202 384 61 25 147 21 203 -9 61 -33 58 -23 -6 19 -141 93 -361 88
-576 -14 -131 -62 -205 -126 -314 -272 l-18 -23 11 30 c27 78 108 162 228 237
39 23 70 46 71 50 1 23 -287 15 -457 -12 -106 -18 -201 -77 -284 -177 l-39
-48 56 -28 c62 -32 68 -46 9 -21 -54 22 -123 14 -235 -31 -179 -71 -439 -119
-600 -113 l-75 3 83 49 c104 61 249 125 375 165 129 41 146 39 27 -4 -113 -41
-370 -165 -370 -178 0 -6 42 -8 108 -4 119 6 248 35 429 96 104 35 122 45 147
78 55 71 152 158 211 190 l60 32 -62 1 c-70 0 -99 -18 -131 -80 -18 -33 -101
-100 -125 -100 -7 0 12 16 41 35 55 38 58 44 41 93 -9 26 -17 32 -53 37 -60 9
-215 -10 -347 -44 -215 -54 -447 -147 -719 -287 -178 -92 -189 -95 -65 -18
306 192 596 316 861 369 67 14 149 25 183 25 l61 0 0 35 c0 50 -36 150 -72
203 -66 96 -71 123 -64 357 5 159 3 237 -8 320 -14 106 -54 283 -77 342 -6 15
-12 71 -13 123 -1 81 -6 104 -28 150 -17 34 -39 62 -59 74 -30 18 -32 18 -58
-1 -43 -32 -54 -69 -57 -178 -2 -94 -21 -189 -44 -225 -7 -10 -8 -1 -3 30 5
25 8 99 7 165 -1 134 -22 239 -72 363 l-30 73 31 -26 c45 -37 93 -56 153 -62
48 -5 56 -10 80 -45 39 -56 91 -98 120 -98 83 0 199 111 274 260 29 58 72 130
95 160 58 75 78 117 79 168 1 53 -20 72 -78 72 -48 0 -110 -27 -179 -76 l-50
-36 22 31 c30 41 104 97 148 112 19 6 55 9 79 6 41 -4 44 -3 44 19 0 81 -84
353 -148 480 -22 44 -87 141 -144 217 -114 151 -146 207 -177 312 -27 92 -56
138 -80 130 -15 -5 -19 1 -24 37 -3 23 -2 45 3 48 18 11 49 98 61 170 7 41 17
78 23 82 6 4 172 8 370 8 l358 0 57 30 c59 32 211 154 211 170 0 6 -193 10
-508 10 -578 0 -539 6 -550 -85 -4 -41 -8 -47 -40 -61 -33 -13 -61 -39 -62
-56 0 -5 23 -8 50 -8 l51 0 -37 -32 c-25 -22 -52 -64 -79 -123 -44 -94 -82
-148 -119 -167 -18 -9 -17 -6 6 18 33 36 67 110 68 146 0 46 -30 108 -61 123
-43 23 -69 19 -69 -8 0 -25 -45 -92 -68 -101 -7 -3 -4 6 7 20 26 33 28 57 4
50 -16 -5 -18 1 -18 45 0 41 -5 54 -22 69 -25 20 -29 30 -11 30 6 0 20 7 30
17 20 18 25 4 6 -15 -17 -17 4 -15 28 3 28 21 32 19 36 -22 2 -30 8 -38 31
-44 27 -7 57 9 57 32 0 5 13 0 29 -12 35 -26 62 -16 81 31 9 21 19 30 35 30
29 0 41 16 50 64 4 21 16 47 26 57 24 24 24 51 1 72 -27 24 -58 21 -81 -9 -20
-25 -21 -25 -21 -6 0 25 -36 62 -61 62 -30 0 -44 -30 -42 -89 l2 -56 -13 63
c-15 76 -42 108 -81 98 -17 -4 -31 -18 -40 -39 -8 -18 -14 -26 -15 -19 0 19
-47 62 -67 62 -10 0 -31 -9 -48 -20z m-5232 -2425 c94 -6 117 -10 117 -22 0
-11 -5 -13 -17 -8 -10 4 -90 11 -177 16 -88 4 -163 12 -168 17 -9 9 57 8 245
-3z"/>
</g>
</svg>
